# xmcd CD database file
#
# Track frame offsets:
#	150
#	13705
#	32722
#	50472
#	68527
#	91057
#	110752
#	137596
#	153669
#	173887
#
# Disc length: 2487 seconds
#
# Revision: 0
# Processed by: cddbd v1.5.1PL2 Copyright (c) Steve Scherf et al.
# Submitted via: CDex 1.51
#
DISCID=7c09b50a
DTITLE=Anna Maria Jopek - 2005 Leverkusener Jazztage
DYEAR=2005
DGENRE=Jazz
TTITLE0=Anna Maria Jopek - Ucisz Sie
TTITLE1=Anna Maria Jopek - All The Virtues
TTITLE2=Anna Maria Jopek - Follow Me
TTITLE3=Anna Maria Jopek - I Burn For You
TTITLE4=Anna Maria Jopek - Insatiable
TTITLE5=Anna Maria Jopek - We Can Work It Out
TTITLE6=Anna Maria Jopek - Dion Zanurzasz We Snie
TTITLE7=Anna Maria Jopek - Every Time We Say Goodbye
TTITLE8=Anna Maria Jopek - Cyraneczka
TTITLE9=Anna Maria Jopek - Until You Sleep
EXTD=YEAR: 2005
EXTT0=
EXTT1=
EXTT2=
EXTT3=
EXTT4=
EXTT5=
EXTT6=
EXTT7=
EXTT8=
EXTT9=
PLAYORDER=
